# xmcd CD database file
#
# Track frame offsets:
#	150
#	18787
#	39595
#	56945
#	77645
#	93507
#	111345
#	128342
#	151210
#	169027
#	186762
#	204970
#
# Disc length: 2978 seconds
#
# Revision: 0
# Processed by: cddbd v1.5.1PL2 Copyright (c) Steve Scherf et al.
# Submitted via: CDex 1.51
#
DISCID=8f0ba00c
DTITLE=Shona Laing - Genre
DYEAR=1993
DGENRE=New Age
TTITLE0=America
TTITLE1=Resurrection
TTITLE2=Day trip
TTITLE3=Not a Kennedy
TTITLE4=Haunted
TTITLE5=Migrant and Refugee
TTITLE6=One in a million
TTITLE7=Metropolitan Moon
TTITLE8=Neat and tidy
TTITLE9=Cat Burglar
TTITLE10=Somebody found you
TTITLE11=Sally Gap
EXTD=YEAR: 1993
EXTT0=
EXTT1=
EXTT2=
EXTT3=
EXTT4=
EXTT5=
EXTT6=
EXTT7=
EXTT8=
EXTT9=
EXTT10=
EXTT11=
PLAYORDER=
